<?xml version="1.0" encoding="utf-8"?>
<!-- Generator: Adobe Illustrator 19.0.0, SVG Export Plug-In . SVG Version: 6.00 Build 0)  -->
<svg version="1.1" id="图层_1" xmlns="http://www.w3.org/2000/svg" xmlns:xlink="http://www.w3.org/1999/xlink" x="0px" y="0px"
	 viewBox="0 0 45 432" style="enable-background:new 0 0 45 432;" xml:space="preserve">
<style type="text/css">
	.st0{fill:#723C3A;}
	.st1{filter:url(#filter-2);}
	.st2{fill:#040000;}
	.st3{fill:#C96862;}
	.st4{fill:#FFFFFF;}
	.st5{font-family:'PingFangSC-Medium-B5pc-H';}
	.st6{font-size:9.9px;}
	.st7{fill:none;stroke:#FFFFFF;stroke-width:0.66;}
	.st8{fill:none;stroke:#FFFFFF;stroke-width:0.704;stroke-linecap:round;stroke-linejoin:round;}
	.st9{fill:#CF5567;}
	.st10{fill:#5A333E;}
	.st11{font-family:'PingFangSC-Regular-B5pc-H';}
	.st12{fill:none;stroke:#FFFFFF;stroke-width:0.7;stroke-linecap:round;stroke-linejoin:round;}
	.st13{fill:none;stroke:#FFFFFF;stroke-width:0.5;}
	.st14{fill:#FFFFFF;stroke:#FFFFFF;stroke-width:0.5;}
	.st15{fill:none;stroke:#CF5567;stroke-width:0.9;stroke-linecap:round;stroke-linejoin:round;}
	.st16{fill:#262F36;}
	.st17{fill:#687BBB;}
	.st18{font-family:'Futura-Medium';}
	.st19{font-size:7.92px;}
	.st20{fill:#60462B;}
	.st21{fill:#E19D6C;}
	.st22{fill:none;stroke:#E19D6C;stroke-width:0.7;}
	.st23{fill:#2F554A;}
	.st24{fill:#72C2AD;}
	.st25{fill:#2A2016;}
	.st26{fill:#CAA461;}
	.st27{fill:#B5955A;}
	.st28{font-size:7.2px;}
</style>
<filter  height="111.6%" width="120.0%" id="filter-2" y="-2.9%" filterUnits="objectBoundingBox" x="-10.0%">
	<feOffset  result="shadowOffsetOuter1" dx="0" dy="2" in="SourceAlpha"></feOffset>
	<feGaussianBlur  stdDeviation="1" result="shadowBlurOuter1" in="shadowOffsetOuter1"></feGaussianBlur>
	<feColorMatrix  type="matrix" values="0 0 0 0 0   0 0 0 0 0   0 0 0 0 0  0 0 0 0.5 0" in="shadowBlurOuter1"></feColorMatrix>
</filter>
<g id="Page-1_30_">
	<g id="Artboard_22_" transform="translate(-62.000000, -177.000000)">
		<g id="Group-11_1_" transform="translate(62.000000, 177.000000)">
			<g id="Group-8-Copy_1_">
				<g id="Group-2-Copy-4_19_">
					<polygon id="Path-44_21_" class="st0" points="4.3,72.1 0,76.5 4.3,76.5 					"/>
					<g id="Path-43_21_">
						<g id="XMLID_21_" class="st1">
							<polygon id="path-1_1_" class="st2" points="4.3,72.1 4.3,134.1 22.3,125.4 40.3,134.1 40.3,72 							"/>
						</g>
						<g id="XMLID_20_">
							<polygon id="path-1_39_" class="st3" points="4.3,72.1 4.3,134.1 22.3,125.4 40.3,134.1 40.3,72 							"/>
						</g>
					</g>
					<text id="XMLID_15_" transform="matrix(1 0 0 1 13.0654 107.5748)" class="st4 st5 st6">秒杀</text>
					<text id="XMLID_11_" transform="matrix(1 0 0 1 32.8652 110.275)" class="st4 st5 st6"> </text>
					<text id="XMLID_10_" transform="matrix(1 0 0 1 13.0654 119.275)" class="st4 st5 st6">特卖</text>
				</g>
			</g>
			<circle id="Oval-2_1_" class="st7" cx="29.5" cy="92.7" r="0.9"/>
			<polygon id="Path-21_1_" class="st4" points="25.6,76.4 18,89.1 22.7,88 19.9,96.5 28.5,84 22.9,85.2 			"/>
			
				<g id="Group-4_1_" transform="translate(17.500000, 11.500000) rotate(-45.000000) translate(-17.500000, -11.500000) translate(16.000000, 10.000000)">
				<path id="Path-22_3_" class="st8" d="M-51.3,50.2h2.7"/>
				<path id="Path-22_2_" class="st8" d="M-50,51.6v-2.7"/>
			</g>
		</g>
	</g>
</g>
<g id="Page-1_20_">
	<g id="Artboard_15_" transform="translate(-62.000000, -52.000000)">
		<g id="Group-8-Copy-2_1_" transform="translate(62.000000, 52.000000)">
			<g id="Group-9_2_">
				<g id="Group-2-Copy-4_12_">
					<g id="Path-43_15_">
						<g id="XMLID_9_" class="st1">
							<polygon id="path-1_1_" class="st2" points="4.3,0.1 4.3,62.1 22.3,53.4 40.3,62.1 40.3,0 							"/>
						</g>
						<g id="XMLID_5_">
							<polygon id="path-1_27_" class="st9" points="4.3,0.1 4.3,62.1 22.3,53.4 40.3,62.1 40.3,0 							"/>
						</g>
					</g>
					<polygon id="Path-44_15_" class="st10" points="4.3,0.1 0,4.5 4.3,4.5 					"/>
					<text id="XMLID_4_" transform="matrix(1 0 0 1 13.0283 34.3499)" class="st4 st11 st6">限时</text>
					<text id="XMLID_3_" transform="matrix(1 0 0 1 32.2285 37.7996)" class="st4 st11 st6"> </text>
					<text id="XMLID_2_" transform="matrix(1 0 0 1 12.728 46.4998)" class="st4 st11 st6">特惠</text>
				</g>
			</g>
			<g id="Group-7_1_" transform="translate(13.000000, 4.000000)">
				<path id="Path-45-Copy_5_" class="st12" d="M-0.7,5.1l2.6,1.5"/>
				<circle id="Oval-8_3_" class="st13" cx="8.9" cy="12.4" r="7.2"/>
				<circle id="Oval-8_2_" class="st14" cx="8.9" cy="12.4" r="5.6"/>
				<path id="Path-45-Copy_4_" class="st12" d="M8.7-0.4v3"/>
				<path id="Path-47-Copy-3_3_" class="st12" d="M-1.5,10.7h1.6"/>
				<path id="Path-47-Copy-2_3_" class="st12" d="M4.5,2.1l0.8,1.4"/>
				<path id="Path-45-Copy_3_" class="st12" d="M19.4,5.1l-2.6,1.5"/>
				<path id="Path-47-Copy-3_2_" class="st12" d="M20.1,10.7h-1.6"/>
				<path id="Path-47-Copy-2_2_" class="st12" d="M14.1,2.1l-0.8,1.4"/>
				<g id="Group-10_1_" transform="translate(8.636364, 9.818182)">
					<path id="Path-45_3_" class="st15" d="M0.2-0.6V4"/>
					<path id="Path-45_2_" class="st15" d="M-2.3,1.2l2.9,1.7"/>
				</g>
			</g>
		</g>
	</g>
</g>
<g id="Page-1_35_">
	<g id="Artboard_26_" transform="translate(-140.000000, -52.000000)">
		<g id="Group-3_3_" transform="translate(140.000000, 52.000000)">
			<g id="Group-2-Copy-3_4_">
				<polygon id="Path-44_25_" class="st16" points="4.3,143.5 0,147.9 4.3,147.9 				"/>
				<g id="Path-43_25_">
					<g id="XMLID_36_" class="st1">
						<polygon id="path-1_1_" class="st2" points="4.3,143.5 4.3,205.5 22.3,196.8 40.3,205.5 40.3,143.4 						"/>
					</g>
					<g id="XMLID_32_">
						<polygon id="path-1_54_" class="st17" points="4.3,143.5 4.3,205.5 22.3,196.8 40.3,205.5 40.3,143.4 						"/>
					</g>
				</g>
				<text id="XMLID_28_" transform="matrix(1 0 0 1 12.4282 179.3999)" class="st4 st11 st6">早鸟</text>
				<text id="XMLID_26_" transform="matrix(1 0 0 1 32.2285 181.1997)" class="st4 st11 st6"> </text>
				<text id="XMLID_24_" transform="matrix(1 0 0 1 12.4282 191.0996)" class="st4 st11 st6">优惠</text>
			</g>
			<g id="Group-8_3_" transform="translate(15.000000, 6.000000)">
				
					<g id="Group-2_4_" transform="translate(7.051083, 6.821659) rotate(-30.000000) translate(-7.051083, -6.821659) translate(5.551083, 5.821659)">
				</g>
				<path id="Combined-Shape_5_" class="st4" d="M5.8,146.1l-2.2-0.5l0,0c-0.4-0.1-0.8,0.1-0.9,0.5l0,0l-1.6,5.8c0,0.1,0,0.3,0,0.4
					c0,0.1,0,0.2,0.1,0.2l0,0l5.3,9.2c0.2,0.3,0.6,0.5,1,0.3l0,0l7.5-4.3c0.3-0.2,0.5-0.6,0.3-1l-5.3-9.2c0-0.1-0.1-0.1-0.2-0.2
					c-0.1-0.1-0.2-0.2-0.3-0.2l0,0l-2.8-0.7c0,0.5-0.2,1-0.5,1.5c0,0.1,0.1,0.1,0.1,0.2c0.4,0.7,0.2,1.6-0.6,2
					c-0.7,0.4-1.7,0.2-2.1-0.5c-0.4-0.7-0.2-1.6,0.6-2c0.4-0.2,0.8-0.3,1.2-0.1C5.7,146.9,5.8,146.5,5.8,146.1z"/>
				<path id="Oval-3_1_" class="st12" d="M4.6,148.2c0.6-0.6,0.9-1.3,0.9-2.2c0-1.8-1.5-3.2-3.2-3.2S-1,144.2-1,146
					c0,1.1,0.6,2.1,1.5,2.7"/>
				<text id="XMLID_12_" transform="matrix(0.8387 -0.5446 0.5446 0.8387 7.3503 157.8604)" class="st17 st18 st19">$</text>
			</g>
		</g>
	</g>
</g>
<g id="Page-1_33_">
	<g id="Artboard_24_" transform="translate(-140.000000, -177.000000)">
		<g id="Group-12_1_" transform="translate(140.000000, 177.000000)">
			<g id="Group-8-Copy-3_1_">
				<g id="Group-2-Copy-4_21_">
					<polygon id="Path-44_23_" class="st20" points="4.3,215.6 0,220 4.3,220 					"/>
					<g id="Path-43_23_">
						<g id="XMLID_37_" class="st1">
							<polygon id="path-1_1_" class="st2" points="4.3,215.6 4.3,277.6 22.3,268.9 40.3,277.6 40.3,215.5 							"/>
						</g>
						<g id="XMLID_25_">
							<polygon id="path-1_47_" class="st21" points="4.3,215.6 4.3,277.6 22.3,268.9 40.3,277.6 40.3,215.5 							"/>
						</g>
					</g>
					<text id="XMLID_19_" transform="matrix(1 0 0 1 12.1652 250.1748)" class="st4 st5 st6">尾单</text>
					<text id="XMLID_17_" transform="matrix(1 0 0 1 31.965 252.875)" class="st4 st5 st6"> </text>
					<text id="XMLID_16_" transform="matrix(1 0 0 1 12.1652 261.875)" class="st4 st5 st6">抢订</text>
				</g>
			</g>
			<g id="Group_1_" transform="translate(17.000000, 5.000000)">
				<path id="Path-3_1_" class="st4" d="M1.6,215c2.7,3,2.8,5.8,0.1,8.5c-1.6,0.8-2-0.1-1.2-2.8c-2.1,2.8-2.7,5.6-1.8,8.2
					c1.3,4,5.9,6,10,4c2.8-1.3,4.2-4.5,4.3-9.5c-1.3,2.2-2.4,3-3.1,2.3c-1.2-1,4.5-6.3-6.6-10.4L1.6,215z"/>
				<path id="Path-9_1_" class="st22" d="M2.6,234.2c-0.2-3.1,0.6-5,2.5-5.7c1.9,0.6,2.7,2.5,2.5,5.7"/>
			</g>
		</g>
	</g>
</g>
<g id="Page-1_24_">
	<g id="Artboard_18_" transform="translate(-218.000000, -177.000000)">
		<g id="Group-13_1_" transform="translate(218.000000, 177.000000)">
			<g id="Group-8-Copy-4_1_">
				<g id="Group-2-Copy-4_15_">
					<polygon id="Path-44_18_" class="st23" points="4.3,288.2 0,292.6 4.3,292.6 					"/>
					<g id="Path-43_18_">
						<g id="XMLID_49_" class="st1">
							<polygon id="path-1_1_" class="st2" points="4.3,288.2 4.3,350.2 22.3,341.5 40.3,350.2 40.3,288.1 							"/>
						</g>
						<g id="XMLID_43_">
							<polygon id="path-1_31_" class="st24" points="4.3,288.2 4.3,350.2 22.3,341.5 40.3,350.2 40.3,288.1 							"/>
						</g>
					</g>
					<text id="XMLID_40_" transform="matrix(1 0 0 1 12.1652 323.6748)" class="st4 st5 st6">独家</text>
					<text id="XMLID_39_" transform="matrix(1 0 0 1 31.965 326.375)" class="st4 st5 st6"> </text>
					<text id="XMLID_38_" transform="matrix(1 0 0 1 12.1652 335.375)" class="st4 st5 st6">专享</text>
				</g>
				<g id="Group-2_3_" transform="translate(14.000000, 6.000000)">
					<path id="Fill-1_6_" class="st4" d="M12.6,291.5c0.2-0.2,0.4-0.5,0.6-0.8l-6.9,1.2c0.2-2.3,2.2-4,4.2-4c2.3,0,4.2,0.3,4.2,0.3
						c-1.6-0.5-2.8-0.6-4.1-0.6c-1.2,0-1.8,0.1-2.2,0.2c0,0-0.1,0-0.1,0c-0.4,0-1.5-0.3-2.3-0.3c-1,0-1.9,0.7-1.9,1.9
						c0,0.5-0.2,1.1-0.6,1.5c-0.8,0.8-1.4,1.6-2,2.4c0,0-0.1,0.1-0.1,0.1c-0.4,0.6-0.8,1.4-0.8,1.4c-0.9,1.7-1.3,3.4-1.5,4.9
						c0,0.3-0.1,0.9-0.1,1.9v5.5c1-1,1.7-2.4,1.7-4c0-0.3,0-0.6-0.1-0.9l0.8,4.5c0.8-1.2,1.2-2.6,0.9-4.2c-0.1-0.3-0.1-0.6-0.2-0.9
						l1.5,4c0.6-1.2,0.7-2.7,0.2-4.1c-0.1-0.3-0.2-0.6-0.4-0.9l-0.9-1.5c1-0.6,1.9-1.5,2.5-2.5c0,0,0.1,0,0.1,0c1,0.4,2.1,0.3,3-0.1
						L6.8,296c0.3,0.1,0.6,0.2,0.9,0.2c1.4,0.2,2.8-0.1,3.8-0.8l-1.6-0.3c0.3,0,0.6,0.1,0.9,0.1c1.9,0,3.5-0.8,4.8-2h-2.1
						c0.4,0,0.8,0,1.2-0.1c1.8-0.3,3.4-1.4,4.4-2.8L12.6,291.5z"/>
				</g>
			</g>
		</g>
	</g>
</g>
<g id="Page-1_38_">
	<g id="Artboard_29_" transform="translate(-295.000000, -52.000000)">
		<g id="Group-17_1_" transform="translate(295.000000, 52.000000)">
			<g id="Group-8-Copy-11_1_">
				<g id="Group-2-Copy-4_23_">
					<polygon id="Path-44_28_" class="st25" points="4.3,360.1 0,364.5 4.3,364.5 					"/>
					<g id="Path-43_28_">
						<g id="XMLID_59_" class="st1">
							<polygon id="path-1_1_" class="st2" points="4.3,360.1 4.3,422.1 22.3,413.3 40.3,422.1 40.3,360 							"/>
						</g>
						<g id="XMLID_52_">
							<polygon id="path-1_63_" class="st26" points="4.3,360.1 4.3,422.1 22.3,413.3 40.3,422.1 40.3,360 							"/>
						</g>
					</g>
				</g>
			</g>
			<g id="Page-1_39_" transform="translate(16.000000, 8.000000)">
				<polygon id="Fill-1_9_" class="st4" points="-1.8,374 13.3,374 11.7,362.9 -0.4,361.1 				"/>
				<polygon id="Fill-2_1_" class="st4" points="11.8,363.1 13.5,374 14.3,373.4 12.8,363 				"/>
				<path id="Fill-3_3_" class="st4" d="M8.5,359.8l-4.8,0c-0.1,0-0.2,0.1-0.2,0.2l0,4c0,0.1,0.1,0.2,0.2,0.2v0.3l0-0.3l4.8,0
					c0.1,0,0.1,0,0.2-0.1s0.1-0.1,0.1-0.2l0-4C8.7,359.9,8.6,359.8,8.5,359.8L8.5,359.8z M3.6,364.9L3.6,364.9
					c-0.5,0-0.9-0.4-0.9-0.8l0-4c0-0.2,0.1-0.4,0.3-0.6c0.2-0.2,0.4-0.2,0.6-0.2l4.8,0c0.5,0,0.9,0.4,0.9,0.8l0,4
					c0,0.2-0.1,0.4-0.3,0.6c-0.2,0.2-0.4,0.2-0.6,0.2L3.6,364.9z"/>
			</g>
			<text id="XMLID_48_" transform="matrix(1 0 0 1 19.6279 378.8669)" class="st27 st18 st28">$</text>
		</g>
	</g>
</g>
<text id="XMLID_22_" transform="matrix(1 0 0 1 12 395.82)"><tspan x="0" y="0" class="st4 st5 st6">本周</tspan><tspan x="0" y="11.9" class="st4 st5 st6">促销</tspan></text>
</svg>
