<?xml version="1.0" encoding="utf-8"?>
<!-- Generator: Adobe Illustrator 19.0.0, SVG Export Plug-In . SVG Version: 6.00 Build 0)  -->
<svg version="1.1" id="图层_1" xmlns="http://www.w3.org/2000/svg" xmlns:xlink="http://www.w3.org/1999/xlink" x="0px" y="0px"
	 viewBox="-84 -155 30 510" style="enable-background:new -84 -155 30 510;" xml:space="preserve">
<style type="text/css">
	.st0{fill:none;stroke:#4B4A4A;stroke-width:1.2;}
	.st1{fill:#D9C8A2;stroke:#4B4A4A;stroke-width:1.2;stroke-linecap:round;}
	.st2{fill:none;stroke:#4B4A4A;stroke-width:1.2;stroke-linecap:round;stroke-linejoin:round;}
	.st3{fill:#D9C8A2;stroke:#4B4A4A;stroke-width:1.2;stroke-linecap:round;stroke-linejoin:round;}
	.st4{fill:none;stroke:#4B4A4A;stroke-linecap:round;stroke-linejoin:round;}
	.st5{fill:#D9C8A2;}
	.st6{fill:#D9C8A2;stroke:#4B4A4A;stroke-linecap:square;stroke-linejoin:round;}
	.st7{fill:none;stroke:#4B4A4A;stroke-width:1.2;stroke-linecap:square;stroke-linejoin:round;}
	.st8{fill:#FFFFFF;stroke:#4B4A4A;stroke-width:1.2;stroke-linecap:square;stroke-linejoin:round;}
	.st9{fill:none;stroke:#4B4A4A;stroke-linecap:square;stroke-linejoin:round;}
	.st10{fill:none;stroke:#D9C8A2;}
	.st11{fill:#FFFFFF;}
	.st12{fill:#D9C8A2;stroke:#4B4A4A;stroke-width:1.2;}
	.st13{fill:#FFFFFF;stroke:#4B4A4A;stroke-width:1.2;}
	.st14{fill:none;stroke:#4B4A4A;stroke-width:1.2;stroke-miterlimit:10;}
	.st15{clip-path:url(#SVGID_2_);fill:#D9C8A2;}
	.st16{clip-path:url(#SVGID_4_);fill:#D9C8A2;}
	.st17{clip-path:url(#SVGID_6_);fill:#D9C8A2;}
	.st18{fill:none;stroke:#484747;stroke-width:1.2;stroke-miterlimit:10;}
	.st19{fill:none;stroke:#484747;stroke-width:1.2;stroke-linecap:round;stroke-miterlimit:10;}
	
		.st20{clip-path:url(#SVGID_9_);fill:#D9C8A2;stroke:#4A4A4A;stroke-width:2.0579;stroke-linecap:round;stroke-linejoin:round;stroke-miterlimit:10;}
	.st21{clip-path:url(#SVGID_11_);fill:#4A4A4A;}
	.st22{clip-path:url(#SVGID_13_);fill:#4A4A4A;}
	.st23{clip-path:url(#SVGID_15_);fill:#DDCBA4;}
	.st24{fill:none;stroke:#4C4A4A;stroke-width:1.2;stroke-linecap:round;stroke-linejoin:round;stroke-miterlimit:10;}
	.st25{fill:none;stroke:#CCCCCC;stroke-miterlimit:10;}
	.st26{clip-path:url(#SVGID_17_);fill:#CCCCCC;}
	.st27{clip-path:url(#SVGID_19_);fill:#E8E8E8;}
	.st28{clip-path:url(#SVGID_21_);fill:#E8E8E8;}
	.st29{fill:none;stroke:#4B4A4A;stroke-width:1.2;stroke-linejoin:round;stroke-miterlimit:10;}
	.st30{fill:none;stroke:#4B4A4A;stroke-miterlimit:10;}
	.st31{clip-path:url(#SVGID_23_);fill:#CCCCCC;}
	.st32{fill:none;stroke:#4B4A4A;stroke-width:1.1999;stroke-miterlimit:10;}
	.st33{clip-path:url(#SVGID_25_);fill:#E8E8E8;}
	.st34{fill:none;stroke:#4B4A4A;stroke-width:1.2;stroke-linecap:round;stroke-miterlimit:10;}
	.st35{fill:none;stroke:#4B4A4A;stroke-width:1.2;stroke-linecap:round;stroke-linejoin:round;stroke-miterlimit:10;}
	.st36{clip-path:url(#SVGID_27_);fill:#E8E8E8;}
	.st37{clip-path:url(#SVGID_29_);fill:#FFFFFF;}
	.st38{clip-path:url(#SVGID_31_);fill:#E8E8E8;}
	.st39{clip-path:url(#SVGID_33_);fill:#E8E8E8;}
	.st40{clip-path:url(#SVGID_35_);fill:#E8E8E8;}
</style>
<g id="Page-1">
	<g id="菜单打开_1_" transform="translate(-17.000000, -275.000000)">
		
			<g id="参考航班-copy" transform="translate(32.000000, 286.091883) rotate(-45.000000) translate(-32.000000, -286.091883) translate(18.000000, 273.091883)">
			<path id="Path-8" class="st0" d="M29.6-132.3l-1.4-4.8h2.1l1.7,2.5h7.4l-3.1-10.7h2.8l6.4,10.8h8c0,0,2.3,0,2.3,2.2"/>
			<path id="Path-8-Copy" class="st1" d="M29.6-132.4l-1.3,4.7h2.1l1.7-2.5h7.4l-3.2,10.7h2.8l6.4-10.8h8c0,0,2.3,0,2.3-2.2"/>
		</g>
	</g>
</g>
<g id="Page-1_2_">
	<g id="菜单打开_2_" transform="translate(-17.000000, -333.000000)">
		<g id="轻奢小团--copy-2" transform="translate(18.000000, 334.000000)">
			<polygon id="Path-4" class="st2" points="-78.5,-93.4 -83.6,-86.7 -70.1,-69.7 -56.4,-86.6 -60.4,-93.4 			"/>
			<path id="Line" class="st2" d="M-83.3-87h26.8"/>
			<polyline id="Path-6" class="st2" points="-78.3,-93.2 -74.5,-86.9 -69.9,-93.1 -65.4,-86.9 -60.5,-93.4 			"/>
			<polyline id="Path-6_1_" class="st3" points="-74.4,-87 -69.9,-93.1 -65.6,-87 			"/>
			<polygon id="Path-7" class="st3" points="-74.4,-87 -70.1,-69.7 -65.5,-87 			"/>
		</g>
	</g>
</g>
<g id="Page-1_3_">
	<g id="菜单打开_3_" transform="translate(-18.000000, -386.000000)">
		<g id="大航海时代-copy-5" transform="translate(18.000000, 387.000000)">
			<polyline id="Rectangle-10" class="st2" points="-76.8,-54.2 -76.8,-62.1 -61.2,-62.1 -61.2,-54 			"/>
			<polygon id="Path-2" class="st3" points="-69.6,-57.5 -80.6,-52.4 -77.1,-48.1 -77.1,-41.9 -69.3,-37.5 -60.6,-41.9 -60.6,-47.8 
				-57.1,-52 			"/>
			<path id="Line_2_" class="st4" d="M-71.4-65.7v3.1"/>
			<path id="Line-Copy-16" class="st4" d="M-67.8-65.7v3.1"/>
			<path id="Line_1_" class="st4" d="M-82.7-41.9c1.4,0,5.6,0,5.6,0"/>
			<path id="Line-Copy-18" class="st4" d="M-60.5-43h5.3"/>
			<path id="Line-Copy-17" class="st4" d="M-80.8-40.3h6.7"/>
			<path id="Line-Copy-33" class="st4" d="M-62.8-40.3h6"/>
			<path id="Line-Copy-20" class="st4" d="M-69.6-48.9v11.3"/>
		</g>
	</g>
</g>
<g id="Page-1_4_">
	<g id="菜单打开_4_" transform="translate(-17.000000, -444.000000)">
		<g id="别墅-copy-5" transform="translate(18.000000, 445.000000)">
			<g id="Group-13" transform="translate(0.000000, 0.300800)">
				<polygon id="Path-16" class="st5" points="-66,-18.6 -66,-13.6 -63.7,-13.6 -63.7,-16.1 -61.6,-16.1 -61.6,-13.6 -59.2,-13.6 
					-59.2,-16.9 				"/>
				<polyline id="Stroke-7" class="st6" points="-76.4,-13.5 -81.5,-13.5 -81.5,-26.1 -68.1,-28.2 -68.1,-20.1 -68.1,-13.5 
					-73.2,-13.5 				"/>
				<path id="Stroke-3" class="st7" d="M-57.5-20.2l-8.1-2c-0.2,0-0.4-0.1-0.6,0v-6.5c0.4-0.4,0.7-0.9,0.6-1.5
					c-0.1-0.9-1-1.5-1.8-1.4l-15.3,2.4c-0.9,0.1-1.5,1-1.3,1.8c0.1,0.4,0.3,0.8,0.6,1v13.8c0,0.6,0.5,1,1,1h15.3h9.1
					c0.6,0,1-0.5,1-1v-4.8c0.4-0.2,0.6-0.6,0.7-1C-56.1-19.1-56.6-20-57.5-20.2z"/>
				<polyline id="Stroke-5" class="st8" points="-73.2,-13.5 -73.2,-18.6 -76.4,-18.6 -76.4,-13.5 				"/>
				<polyline id="Stroke-9" class="st9" points="-61.7,-13.5 -61.7,-16.1 -63.5,-16.1 -63.5,-13.5 				"/>
				<polyline id="Stroke-11" class="st9" points="-63.5,-13.5 -66.1,-13.5 -66.1,-18.8 -59,-17.2 -59,-13.5 -61.7,-13.5 				"/>
			</g>
		</g>
	</g>
</g>
<title>Group 3 Copy</title>
<desc>Created with Sketch.</desc>
<g id="Page-1_8_">
	<g id="菜单打开_8_" transform="translate(-192.000000, -222.000000)">
		<g id="Group-12" transform="translate(193.000000, 222.000000)">
			<g id="Group-9">
				<path id="Path-39" class="st2" d="M-70.4,106.7V96.5l0,0c0-0.4-0.2-0.7-0.5-0.9l-9.9-6l0,0c-0.5-0.3-1.1-0.1-1.4,0.3
					c-0.1,0.2-0.1,0.3-0.1,0.5v13.9l0,0c0,0.4,0.2,0.7,0.5,0.9l10.5,5.7l0,0c0.3,0.1,0.6,0.2,0.9,0l11.5-5l0,0
					c0.4-0.2,0.6-0.5,0.6-0.9V90.5l0,0c0-0.6-0.4-1-1-1c-0.2,0-0.4,0.1-0.5,0.1l-8.1,4.9"/>
			</g>
			<path id="Path-53" class="st10" d="M-80,97.9l7.2,3.8"/>
			<polygon id="Path-54" class="st5" points="-67.9,96.7 -59.7,92.1 -59.7,104 -67.9,108 			"/>
			<path id="Path-53_1_" class="st10" d="M-80,94.5l7.2,3.8"/>
		</g>
	</g>
</g>
<g id="Page-1_9_">
	<g id="首页-Final" transform="translate(-14.000000, -953.000000)">
		<g id="Group-6-Copy-2" transform="translate(15.000000, 954.000000)">
			<circle id="Oval-6" class="st0" cx="-70.3" cy="129" r="10.1"/>
			<path id="Path-11" class="st2" d="M-83.9,128.8c0,0,9.1,0,27.3,0.1"/>
			<path id="Path-11_1_" class="st2" d="M-80,138.5l19.3-19.3"/>
			<path id="Path-11_2_" class="st2" d="M-69.9,142.7l-0.8-27.3"/>
			<path id="Path-11_3_" class="st2" d="M-60.7,138.5L-80,119.2"/>
			<circle id="Oval-7" class="st3" cx="-70.3" cy="129" r="3.9"/>
		</g>
	</g>
</g>
<g id="Page-1_16_">
	<g id="菜单打开_14_" transform="translate(-191.000000, -555.000000)">
		<g id="多种深度体验" transform="translate(192.000000, 556.000000)">
			<g id="Group-24">
				<path id="Oval-13" class="st2" d="M-81,310.1c0.8,5.2,5.2,9.2,10.6,9.2s9.8-4,10.6-9.2 M-59.9,307.1c-0.7-5.3-5.2-9.3-10.6-9.3
					s-9.9,4-10.6,9.3"/>
				<polyline id="Path-10" class="st2" points="-82.5,312.4 -81,310.1 -78.7,311.8 				"/>
				<polyline id="Path-10-Copy" class="st2" points="-58.3,305.1 -59.8,307.4 -62.1,305.7 				"/>
			</g>
		</g>
	</g>
</g>
<g id="Page-1_17_">
	<g id="首页-Final_1_" transform="translate(-15.000000, -482.000000)">
		<g id="别墅特色-copy" transform="translate(15.000000, 483.505864)">
			<g id="Rectangle-25" transform="translate(5.917536, 22.270939) rotate(-330.000000) translate(-5.917536, -22.270939) ">
				<g id="XMLID_48_">
					<path id="path-1_3_" class="st11" d="M99.8,339.6l0.3,9c0,0.5-0.4,0.8-0.8,0.5l-2.8-1.6l-3,2c-0.5,0.3-0.8,0.1-0.8-0.5v-9.6"/>
				</g>
				<path id="XMLID_47_" class="st0" d="M99.3,340.2l-6.1-0.2v8.9l3.3-2.1l3.1,1.8L99.3,340.2z"/>
			</g>
			
				<g id="Rectangle-25-Copy" transform="translate(21.715516, 22.270939) scale(-1, 1) rotate(-330.000000) translate(-21.715516, -22.270939) ">
				<g id="XMLID_46_">
					<path id="path-2" class="st11" d="M259,256.8l0.3,9c0,0.5-0.4,0.8-0.8,0.5l-2.8-1.6l-3,2c-0.5,0.3-0.8,0.1-0.8-0.5v-9.6"/>
				</g>
				<path id="XMLID_45_" class="st0" d="M258.5,257.3l-6.1-0.2v8.9l3.3-2.1l3.1,1.8L258.5,257.3z"/>
			</g>
			<ellipse id="Oval" class="st12" cx="-69.1" cy="334.2" rx="9.9" ry="9.9"/>
			<polygon id="Star" class="st13" points="-69.1,336.7 -71.7,338.1 -71.2,335.2 -73.3,333.1 -70.4,332.7 -69.1,330 -67.8,332.7 
				-64.9,333.1 -67,335.2 -66.5,338.1 			"/>
		</g>
	</g>
</g>
<g>
	<path class="st14" d="M-75.1,74l3.2,4.3c0.7,1,1.8,1.5,2.9,1.5s2.3-0.6,2.9-1.5l3.4-4.6"/>
	<circle class="st14" cx="-69.1" cy="67.1" r="9.1"/>
	<g>
		<g>
			<g>
				<g>
					<g>
						<defs>
							<path id="SVGID_1_" d="M-66.9,81.2V83c0,0.9-0.7,1.6-1.6,1.6h-1c-0.9,0-1.6-0.7-1.6-1.6v-1.8H-66.9z"/>
						</defs>
						<clipPath id="SVGID_2_">
							<use xlink:href="#SVGID_1_"  style="overflow:visible;"/>
						</clipPath>
						<rect x="-76.1" y="76.2" class="st15" width="14.2" height="13.4"/>
					</g>
				</g>
			</g>
		</g>
	</g>
	<path class="st14" d="M-66.8,81.6h-3.8v1.3c0,0.6,0.5,1.1,1.1,1.1h1c0.6,0,1.1-0.5,1.1-1.1v-1.3H-66.8z"/>
	<g>
		<g>
			<g>
				<g>
					<g>
						<defs>
							<path id="SVGID_3_" d="M-69.4,58.3l0.7,0.6c1.6,1.3,2.7,3.1,3.2,5.1c0.4,2.1,0.4,4.2,0,6.3c-0.4,2-1.6,3.8-3.2,5.1l-0.7,0.6
								l-0.7-0.6c-1.6-1.3-2.7-3.1-3.2-5.1c-0.4-2.1-0.4-4.2,0-6.3c0.4-2,1.6-3.8,3.2-5.1L-69.4,58.3z"/>
						</defs>
						<clipPath id="SVGID_4_">
							<use xlink:href="#SVGID_3_"  style="overflow:visible;"/>
						</clipPath>
						<rect x="-78.6" y="53.3" class="st16" width="18.4" height="27.7"/>
					</g>
				</g>
			</g>
		</g>
	</g>
	<path class="st14" d="M-69.4,58.3l0.7,0.6c1.6,1.3,2.7,3.1,3.2,5.1c0.4,2.1,0.4,4.2,0,6.3c-0.4,2-1.6,3.8-3.2,5.1l-0.7,0.6
		l-0.7-0.6c-1.6-1.3-2.7-3.1-3.2-5.1c-0.4-2.1-0.4-4.2,0-6.3c0.4-2,1.6-3.8,3.2-5.1L-69.4,58.3z"/>
</g>
<g>
	<g>
		<g>
			<g>
				<g>
					<g>
						<defs>
							<path id="SVGID_5_" d="M-80.6,1.5c0-1.1,0.9-1.9,1.9-1.9h12.1c1.1,0,1.9,0.9,1.9,1.9v19.7h-15.9V1.5z"/>
						</defs>
						<clipPath id="SVGID_6_">
							<use xlink:href="#SVGID_5_"  style="overflow:visible;"/>
						</clipPath>
						<rect x="-85.6" y="-5.4" class="st17" width="25.9" height="31.6"/>
					</g>
				</g>
			</g>
		</g>
	</g>
	<path class="st18" d="M-80,20.7h14.8V1.5c0-0.7-0.6-1.3-1.3-1.3h-12.2c-0.7,0-1.3,0.6-1.3,1.3V20.7z"/>
	<line class="st19" x1="-82.8" y1="20.7" x2="-55.3" y2="20.7"/>
	<line class="st19" x1="-77" y1="4.2" x2="-74.1" y2="4.2"/>
	<line class="st19" x1="-71.2" y1="4.2" x2="-68.3" y2="4.2"/>
	<line class="st19" x1="-77" y1="8.3" x2="-74.1" y2="8.3"/>
	<line class="st19" x1="-71.2" y1="8.3" x2="-68.3" y2="8.3"/>
	<line class="st19" x1="-62.5" y1="11.6" x2="-59.6" y2="11.6"/>
	<line class="st19" x1="-77" y1="12.5" x2="-74.1" y2="12.5"/>
	<line class="st19" x1="-71.2" y1="12.5" x2="-68.3" y2="12.5"/>
	<line class="st19" x1="-62.5" y1="15.8" x2="-59.6" y2="15.8"/>
	<path class="st18" d="M-65.3,7.4v13.3h8.7V9.5c0-1.1-1-2-2.3-2L-65.3,7.4z"/>
</g>
<g>
	<g>
		<g>
			<polygon id="SVGID_7_" class="st5" points="-75.1,30.5 -71.3,35.3 -68.1,35.9 -61.4,32.7 -64,31.9 -62.2,30.2 -62.1,27.8 
				-59.8,27.8 -57.2,30.2 -55.7,28.5 -55.6,33.6 -59.6,37.1 -59.7,36 -61.4,37.2 -58.1,44 -60,47 -64.4,49.1 -67.8,48.3 -70.3,49 
				-72.1,47.2 -71.7,44.7 -75,44.9 -78,44.1 -81.6,41.3 -81.3,38.6 -82.5,37 -82.6,35.2 -79.6,34.8 -78.8,32.4 			"/>
		</g>
		<g>
			<g>
				<g>
					<defs>
						<polygon id="SVGID_8_" points="-75.1,30.5 -71.3,35.3 -68.1,35.9 -61.4,32.7 -64,31.9 -62.2,30.2 -62.1,27.8 -59.8,27.8 
							-57.2,30.2 -55.7,28.5 -55.6,33.6 -59.6,37.1 -59.7,36 -61.4,37.2 -58.1,44 -60,47 -64.4,49.1 -67.8,48.3 -70.3,49 
							-72.1,47.2 -71.7,44.7 -75,44.9 -78,44.1 -81.6,41.3 -81.3,38.6 -82.5,37 -82.6,35.2 -79.6,34.8 -78.8,32.4 						"/>
					</defs>
					<clipPath id="SVGID_9_">
						<use xlink:href="#SVGID_8_"  style="overflow:visible;"/>
					</clipPath>
					<polygon class="st20" points="-75.1,30.5 -71.3,35.3 -68.1,35.9 -61.4,32.7 -64,31.9 -62.2,30.2 -62.1,27.8 -59.8,27.8 
						-57.2,30.2 -55.7,28.5 -55.6,33.6 -59.6,37.1 -59.7,36 -61.4,37.2 -58.1,44 -60,47 -64.4,49.1 -67.8,48.3 -70.3,49 -72.1,47.2 
						-71.7,44.7 -75,44.9 -78,44.1 -81.6,41.3 -81.3,38.6 -82.5,37 -82.6,35.2 -79.6,34.8 -78.8,32.4 					"/>
				</g>
			</g>
		</g>
	</g>
	<g>
		<g>
			<g>
				<g>
					<defs>
						
							<ellipse id="SVGID_10_" transform="matrix(-0.9782 -0.2079 0.2079 -0.9782 -138.8222 84.884)" cx="-65" cy="49.7" rx="1" ry="0.7"/>
					</defs>
					<clipPath id="SVGID_11_">
						<use xlink:href="#SVGID_10_"  style="overflow:visible;"/>
					</clipPath>
					
						<rect x="-70.2" y="44.9" transform="matrix(0.7431 -0.6691 0.6691 0.7431 -50.0526 -30.6507)" class="st21" width="10.6" height="9.9"/>
				</g>
			</g>
		</g>
	</g>
	<g>
		<g>
			<g>
				<g>
					<defs>
						<polygon id="SVGID_12_" points="-57.6,46.1 -58.5,46.2 -58.8,47.7 -58.3,48.7 -57.6,47.7 						"/>
					</defs>
					<clipPath id="SVGID_13_">
						<use xlink:href="#SVGID_12_"  style="overflow:visible;"/>
					</clipPath>
					<rect x="-63.1" y="41.8" class="st22" width="9.8" height="11.2"/>
				</g>
			</g>
		</g>
	</g>
</g>
<g>
	<g>
		<g>
			<g>
				<defs>
					<path id="SVGID_14_" d="M-54.9-149.3l-9.3,1.6c0.3-0.3,0.6-0.7,0.9-1.1l-9.8,1.8c0.2-3.3,3.1-5.6,5.9-5.6l0,0
						c3.3,0,5.9,0.4,5.9,0.4c-2.3-0.7-4-0.9-5.8-0.9s-2.5,0.2-3.1,0.2h-0.1c-0.6,0-2.1-0.5-3.2-0.5c-1.3,0.1-2.6,1.1-2.6,2.8
						c0,0.8-0.3,1.5-0.9,2.1c-1.1,1.1-2,2.2-2.8,3.4c0,0-0.1,0.1-0.1,0.2c-0.5,0.8-1.1,1.9-1.1,1.9c-1.2,2.4-1.8,4.8-2.1,6.8l0,0
						c-0.1,0.4-0.2,1.3-0.2,2.7v7.8c1.4-1.4,2.3-3.4,2.3-5.6c0-0.4,0-0.8-0.1-1.2l1.2,6.3c1.2-1.7,1.7-3.7,1.3-5.9
						c-0.1-0.4-0.2-0.9-0.3-1.3l2.1,5.7c0.8-1.8,1-3.9,0.3-5.8c-0.2-0.4-0.3-0.8-0.6-1.2l-1.3-2.2c1.4-0.9,2.7-2.1,3.6-3.6
						c0.1,0,0.1,0,0.2,0.1c1.4,0.5,3,0.4,4.3-0.2l-1.9-0.7c0.4,0.1,0.8,0.2,1.2,0.3c2,0.3,3.9-0.1,5.4-1.2l-2.2-0.4
						c0.4,0.1,0.9,0.1,1.3,0.1c2.6,0,5-1.1,6.8-2.8h-3c0.5,0,1.1,0,1.7-0.1C-58.5-145.8-56.3-147.3-54.9-149.3"/>
				</defs>
				<clipPath id="SVGID_15_">
					<use xlink:href="#SVGID_14_"  style="overflow:visible;"/>
				</clipPath>
				<rect x="-88.3" y="-158.3" class="st23" width="38.3" height="37.6"/>
			</g>
		</g>
	</g>
</g>
<path class="st24" d="M-54.9-149.2l-9.3,1.6c0.3-0.3,0.6-0.7,0.9-1.1l-9.8,1.8c0.3-3.3,3.1-5.6,6-5.6c3.3,0,5.9,0.4,5.9,0.4
	c-2.3-0.7-4-0.9-5.8-0.9s-2.5,0.2-3.1,0.2h-0.1c-0.6,0-2.1-0.5-3.2-0.5c-1.4,0.1-2.7,1.1-2.7,2.8c0,0.8-0.3,1.5-0.9,2.1
	c-1.1,1.1-2,2.2-2.8,3.3c0,0-0.1,0.1-0.1,0.2c-0.5,0.8-1.1,1.9-1.1,1.9c-1.3,2.5-1.9,4.9-2.1,6.9c-0.1,0.4-0.2,1.3-0.2,2.7v7.8
	c1.4-1.4,2.3-3.4,2.3-5.6c0-0.4,0-0.8-0.1-1.2l1.1,6.4c1.2-1.7,1.7-3.7,1.3-5.9c-0.1-0.4-0.2-0.9-0.3-1.3l2.1,5.7
	c0.8-1.8,1-3.9,0.3-5.8c-0.1-0.5-0.3-0.9-0.5-1.3l-1.3-2.2c1.4-0.9,2.7-2.1,3.6-3.6c0.1,0,0.1,0,0.2,0.1c1.4,0.5,3,0.4,4.3-0.2
	l-2-0.7c0.4,0.1,0.8,0.2,1.2,0.3c2,0.3,3.9-0.1,5.4-1.2l-2.2-0.4c0.4,0.1,0.9,0.1,1.3,0.1c2.6,0,5-1.1,6.8-2.8h-3
	c0.5,0,1.1,0,1.7-0.1C-58.5-145.7-56.3-147.2-54.9-149.2z"/>
<line class="st25" x1="-78.7" y1="97.9" x2="-71.5" y2="101.7"/>
<g>
	<g>
		<defs>
			<polygon id="SVGID_16_" points="-67.3,96.7 -59.1,92.1 -59.1,104 -67.3,108 			"/>
		</defs>
		<clipPath id="SVGID_17_">
			<use xlink:href="#SVGID_16_"  style="overflow:visible;"/>
		</clipPath>
		<rect x="-72.3" y="87.1" class="st26" width="18.2" height="25.9"/>
	</g>
</g>
<line class="st25" x1="-78.4" y1="94.8" x2="-71.2" y2="98.6"/>
<g>
	<g>
		<defs>
			<path id="SVGID_18_" d="M-75.2,155.8c0-3.1,2.5-5.7,5.7-5.7c3.1,0,5.7,2.5,5.7,5.7c0,3.1-2.5,5.7-5.7,5.7
				C-72.7,161.4-75.2,158.9-75.2,155.8"/>
		</defs>
		<clipPath id="SVGID_19_">
			<use xlink:href="#SVGID_18_"  style="overflow:visible;"/>
		</clipPath>
		<rect x="-80.2" y="145.1" class="st27" width="21.4" height="21.4"/>
	</g>
</g>
<path class="st18" d="M-75.2,155.8c0-3.1,2.5-5.7,5.7-5.7c3.1,0,5.7,2.5,5.7,5.7c0,3.1-2.5,5.7-5.7,5.7
	C-72.7,161.4-75.2,158.9-75.2,155.8"/>
<path class="st18" d="M-58.5,171.2c0-5.3-4.9-9.6-11-9.6s-11,4.3-11,9.6"/>
<g>
	<g>
		<defs>
			<path id="SVGID_20_" d="M-58.8,182.7c-2.7-2.7-7.1-2.7-9.8,0l-0.7,0.7l-0.7-0.7c-2.7-2.7-7.1-2.7-9.8,0c-2.7,2.7-2.7,7.1,0,9.8
				l0.7,0.7l9.8,8.3l9.8-8.3l0.7-0.7C-56.1,189.8-56.1,185.4-58.8,182.7z"/>
		</defs>
		<clipPath id="SVGID_21_">
			<use xlink:href="#SVGID_20_"  style="overflow:visible;"/>
		</clipPath>
		<rect x="-86.8" y="176.6" class="st28" width="35" height="29.8"/>
	</g>
</g>
<path class="st29" d="M-58.8,181.7c-2.7-2.7-7.1-2.7-9.8,0l-0.7,0.7l-0.7-0.7c-2.7-2.7-7.1-2.7-9.8,0c-2.7,2.7-2.7,7.1,0,9.8
	l0.7,0.7l9.8,8.3l9.8-8.3l0.7-0.7C-56.1,188.8-56.1,184.4-58.8,181.7z"/>
<path class="st30" d="M-63.5,188.4c-1.4,4.1-3.4,5.5-6,4.1"/>
<g>
	<g>
		<defs>
			<path id="SVGID_22_" d="M-82.5,217.3c1.6,4.8,4.7,6.7,9.5,5.7c0.9-2.8,2.2-4.2,3.9-4.1c2.5,0.1,3.6,2,4.7,4.1
				c4.2,0.7,7.3-0.5,9.3-3.8l-2,5.6l-8.4,0.9c-1-2.4-1.7-3.8-2.1-4.2s-1.1-0.4-2,0.1c-1.4,1.4-2.1,2.6-2.1,3.4
				c0,0.9-2.2,1.1-6.7,0.6c-2.4-1.4-3.9-2.9-4.3-4.4S-83.2,218.3-82.5,217.3z"/>
		</defs>
		<clipPath id="SVGID_23_">
			<use xlink:href="#SVGID_22_"  style="overflow:visible;"/>
		</clipPath>
		<rect x="-88" y="212.3" class="st31" width="37.9" height="18.6"/>
	</g>
</g>
<path class="st14" d="M-61.2,213.4L-61.2,213.4h-15.6c-3.3,0-6,2.8-6,6.1c0,3.4,2.7,6.1,6,6.1h4c0.4,0,0.7-0.2,0.9-0.5
	c1-1.9,1.4-4,3-4s2.1,2.1,3.1,4c0.2,0.3,0.5,0.5,0.9,0.5h3.8c3.3,0,6-2.7,6-6.1C-55.1,216.1-57.9,213.4-61.2,213.4z"/>
<circle class="st32" cx="-81.8" cy="243.8" r="1.7"/>
<g>
	<g>
		<defs>
			<path id="SVGID_24_" d="M-80.6,246.3c1.3-2.5,2.5-5,10.2-2.2c5.6,2.1,7-0.9,9.5-2.9l0.3,4.2l5.1,2.1c-1.5,2.4-3.4,6.1-11,3.9
				c-7.6-2.2-11.3-0.3-12.3,2.4"/>
		</defs>
		<clipPath id="SVGID_25_">
			<use xlink:href="#SVGID_24_"  style="overflow:visible;"/>
		</clipPath>
		<rect x="-85.6" y="236.2" class="st33" width="35.1" height="22.6"/>
	</g>
</g>
<path class="st34" d="M-80.6,246.3c1.3-2.5,2.5-5,10.2-2.2c5.6,2.1,7-0.9,9.5-2.9l0.3,4.2l5.1,2.1c-1.5,2.4-3.4,6.1-11,3.9
	c-7.6-2.2-11.3-0.3-12.3,2.4"/>
<line class="st35" x1="-80.8" y1="245.6" x2="-77.6" y2="261.3"/>
<g>
	<g>
		<defs>
			<path id="SVGID_26_" d="M-81.3,274.2c0,0,1.7,4.9,5.1,14.8h13.7l5.6-15.1l-7,3.4l-5.5-8.3l-5.1,8.3
				C-79.1,275.3-81.3,274.2-81.3,274.2z"/>
		</defs>
		<clipPath id="SVGID_27_">
			<use xlink:href="#SVGID_26_"  style="overflow:visible;"/>
		</clipPath>
		<rect x="-86.3" y="264" class="st36" width="34.4" height="30"/>
	</g>
</g>
<path class="st14" d="M-81.3,275.2c0,0,1.7,4.9,5.1,14.8h13.7l5.6-15.1l-7,3.4l-5.5-8.3l-5.1,8.3C-79.1,276.3-81.3,275.2-81.3,275.2
	z"/>
<g>
	<g>
		<defs>
			<polygon id="SVGID_28_" points="-69.4,275.6 -72.2,280.7 -69.4,285.6 -66.5,280.6 			"/>
		</defs>
		<clipPath id="SVGID_29_">
			<use xlink:href="#SVGID_28_"  style="overflow:visible;"/>
		</clipPath>
		<rect x="-77.2" y="270.6" class="st37" width="15.7" height="20"/>
	</g>
</g>
<polygon class="st14" points="-69.4,275.6 -72.2,280.7 -69.4,285.6 -66.5,280.6 "/>
<g>
	<g>
		<defs>
			<circle id="SVGID_30_" cx="-81.6" cy="275.3" r="1.7"/>
		</defs>
		<clipPath id="SVGID_31_">
			<use xlink:href="#SVGID_30_"  style="overflow:visible;"/>
		</clipPath>
		<rect x="-88.3" y="268.6" class="st38" width="13.4" height="13.4"/>
	</g>
</g>
<circle class="st14" cx="-81.6" cy="275.3" r="1.7"/>
<g>
	<g>
		<defs>
			<circle id="SVGID_32_" cx="-57.2" cy="275.3" r="1.7"/>
		</defs>
		<clipPath id="SVGID_33_">
			<use xlink:href="#SVGID_32_"  style="overflow:visible;"/>
		</clipPath>
		<rect x="-63.9" y="268.6" class="st39" width="13.4" height="13.4"/>
	</g>
</g>
<circle class="st14" cx="-57.2" cy="275.3" r="1.7"/>
<g>
	<g>
		<defs>
			<circle id="SVGID_34_" cx="-69.6" cy="270.3" r="2.3"/>
		</defs>
		<clipPath id="SVGID_35_">
			<use xlink:href="#SVGID_34_"  style="overflow:visible;"/>
		</clipPath>
		<rect x="-76.9" y="264" class="st40" width="14.6" height="13.6"/>
	</g>
</g>
<circle class="st14" cx="-69.6" cy="270.3" r="2.3"/>
<g id="图层_2">
</g>
</svg>
